M48
; DRILL file {KiCad (5.1.2)-1} date 24.06.2019 11:35:05
; FORMAT={-:-/ absolute / metric / decimal}
; #@! TF.CreationDate,2019-06-24T11:35:05+02:00
; #@! TF.GenerationSoftware,Kicad,Pcbnew,(5.1.2)-1
; #@! TF.FileFunction,Plated,1,16,PTH
FMAT,2
METRIC
T1C0.300
T2C0.400
T3C0.500
T4C0.600
T5C0.700
T6C0.711
T7C0.800
T8C0.813
T9C0.900
T10C0.991
T11C1.000
T12C1.016
T13C1.118
T14C1.194
T15C1.200
T16C1.300
T17C1.321
T18C1.400
T19C1.422
T20C1.499
T21C1.500
T22C1.550
T23C1.600
T24C1.700
T25C1.900
T26C2.000
T27C2.200
T28C2.500
T29C3.500
T30C4.500
T31C5.500
T32C8.500
%
G90
G05
T1
X56.862Y-91.351
X59.212Y-102.94
X63.371Y-89.367
X64.483Y-102.781
X66.181Y-106.004
X67.261Y-97.828
X70.833Y-98.876
X74.246Y-105.718
X78.611Y-86.874
X78.611Y-98.971
X79.564Y-103.495
X82.435Y-103.035
X84.644Y-94.526
X85.358Y-100.32
X129.57Y-75.285
X130.681Y24.536
X131.316Y-116.91
X132.65Y-115.799
X134.809Y-75.285
X135.063Y-115.799
X135.381Y-21.025
X137.508Y5.153
X138.396Y-21.025
X139.044Y-132.151
X140.206Y-62.776
X140.603Y-77.54
X140.839Y-127.699
X141.0Y-133.795
X141.572Y-78.746
X142.746Y22.314
X143.238Y-134.037
X145.366Y-127.07
X146.397Y-115.798
X147.668Y-132.547
X147.874Y-127.102
X148.382Y-128.641
X149.7Y-75.571
X150.017Y-116.91
X150.843Y-62.776
X151.287Y-115.576
X153.383Y-100.162
X157.828Y-99.606
X158.78Y-98.177
X158.939Y-154.057
X159.161Y19.298
X161.558Y21.838
X166.019Y1.121
X172.21Y22.108
X173.464Y-0.07
X180.529Y-131.039
X181.164Y-128.499
X186.323Y29.299
X187.038Y-4.991
X187.514Y20.854
X188.308Y-128.276
X188.752Y21.981
X190.847Y-111.512
X190.848Y-130.372
X190.927Y23.139
X191.721Y-5.309
X192.673Y-128.261
X193.388Y16.757
X193.388Y11.042
X194.149Y-74.873
X194.658Y23.139
X194.721Y-117.862
X194.975Y26.759
X196.065Y-76.455
X197.674Y23.425
X197.864Y27.68
X197.884Y-77.234
X198.15Y-117.834
X198.769Y1.041
X199.103Y25.902
X199.2Y-75.54
X199.246Y-0.546
X200.055Y-110.401
X200.055Y-113.068
X202.675Y-126.117
X203.23Y-17.056
X203.706Y-110.401
X204.205Y-0.149
X204.389Y-112.877
X205.215Y21.679
X205.389Y1.041
X205.691Y-16.977
X206.548Y34.347
X206.548Y31.49
X209.342Y-127.07
X211.485Y-115.957
X243.75Y-95.365
X244.584Y-106.988
X244.584Y-155.724
X246.251Y-118.1
X264.587Y-123.419
X265.063Y-118.656
X266.095Y-87.859
X266.175Y-66.427
X266.175Y-71.031
X266.413Y-155.566
X266.413Y-169.377
X266.413Y-183.823
X267.445Y-43.171
X268.461Y-60.617
X269.048Y-43.075
X269.111Y-125.641
X270.143Y-18.167
X270.143Y-32.296
X270.397Y-75.635
X274.826Y-2.769
X274.985Y-17.136
X275.223Y-188.744
X276.334Y-224.384
X278.001Y13.503
X278.239Y-171.758
X280.065Y-88.811
X281.811Y8.582
X281.891Y-187.951
X281.891Y-198.507
X281.97Y-155.486
X282.685Y-126.594
X283.319Y14.297
X286.336Y-153.581
X287.288Y21.361
X290.066Y-126.594
T2
X50.155Y-87.505
X55.116Y-93.381
X64.16Y-88.06
X171.845Y-16.995
X176.37Y-17.28
X180.828Y-22.315
X185.625Y-15.34
X186.575Y33.4
X188.17Y4.15
X207.358Y-113.973
X211.585Y29.565
X213.805Y17.0
X214.225Y24.705
X214.46Y-15.305
X218.54Y18.75
X222.318Y-16.115
X246.248Y-97.268
X248.63Y-104.45
X279.115Y-96.515
T3
X30.986Y-70.714
X61.625Y-93.097
X76.119Y-89.922
X77.373Y-96.59
X77.405Y-85.414
X80.58Y-87.16
X139.368Y-128.931
X140.15Y-73.155
X142.29Y-130.85
X144.921Y-73.492
X155.288Y-99.924
X156.24Y-67.062
X156.24Y-72.618
X161.399Y-20.866
X166.305Y22.219
X166.718Y7.788
X170.147Y7.487
X170.924Y-1.832
X171.798Y-132.944
X172.75Y-128.657
X175.608Y-21.025
X181.66Y7.71
X182.061Y-20.449
X184.577Y8.344
X188.466Y-19.596
X193.229Y30.33
X194.658Y-127.07
X194.658Y-121.514
X195.928Y4.915
X195.928Y-1.245
X198.706Y-121.514
X199.182Y-5.864
X201.087Y5.01
X204.183Y-6.182
X208.628Y-17.612
X214.175Y-17.2
X256.015Y-206.286
X256.332Y-90.399
X262.587Y-128.911
X268.397Y-66.269
X268.397Y-71.412
X270.54Y-122.8
X270.683Y-92.335
T4
X19.159Y-67.38
X30.97Y-67.205
X30.971Y-76.143
X31.098Y-82.001
X41.226Y-84.557
X41.654Y-77.016
X47.782Y-73.603
X56.704Y-103.019
X59.561Y-69.445
X59.561Y-75.873
X64.387Y-84.683
X70.991Y-87.478
X72.765Y-85.267
X73.373Y-56.744
X73.375Y-64.604
X80.04Y-94.447
X80.262Y-80.239
X80.31Y-76.984
X82.374Y-72.507
X83.914Y-82.747
X87.343Y-84.842
X87.978Y-72.841
X90.772Y-80.588
X91.708Y-76.413
X94.328Y-229.94
X94.486Y-223.114
X94.486Y-224.225
X95.439Y-229.94
X95.598Y-223.114
X95.677Y-224.225
X96.471Y-93.971
X96.55Y-229.94
X96.709Y-223.114
X96.868Y-224.225
X97.741Y-229.94
X97.899Y-223.114
X97.979Y-74.762
X98.058Y-224.225
X98.693Y-225.415
X98.693Y-226.606
X98.693Y-227.717
X98.693Y-228.829
X98.852Y-229.94
X99.074Y-96.907
X99.09Y-92.145
X99.169Y-224.304
X99.17Y-223.114
X99.804Y-225.415
X99.804Y-226.606
X99.804Y-227.717
X99.804Y-228.829
X107.488Y27.648
X109.091Y-79.524
X115.679Y30.966
X120.442Y-96.828
X122.918Y22.869
X127.649Y31.378
X128.935Y19.488
X129.491Y22.949
X131.793Y4.296
X133.38Y-24.438
X136.079Y1.994
X141.635Y7.709
X148.065Y-20.549
X149.668Y-22.358
X151.795Y9.455
X178.386Y-212.874
X178.386Y-213.986
X178.386Y-215.097
X178.386Y-216.208
X178.386Y-217.319
X179.497Y-212.874
X179.497Y-213.986
X179.497Y-215.097
X179.497Y-216.208
X179.497Y-217.319
X180.608Y-212.874
X180.608Y-213.986
X180.608Y-215.097
X180.608Y-216.208
X180.608Y-217.319
X181.719Y-212.874
X181.719Y-213.986
X181.719Y-215.097
X181.719Y-216.208
X181.719Y-217.319
X181.959Y11.418
X182.831Y-212.874
X182.831Y-213.986
X182.831Y-215.097
X182.831Y-216.208
X182.831Y-217.319
X186.244Y-20.231
X194.816Y9.296
X195.372Y18.107
X197.753Y-115.957
X198.388Y18.98
X199.579Y8.502
X207.993Y-180.093
X215.295Y-185.252
X216.962Y-181.283
X217.121Y-212.716
X217.628Y-19.056
X217.628Y-20.2
X217.628Y-21.342
X217.628Y-22.485
X217.628Y-23.628
X217.628Y-24.771
X217.628Y-25.994
X217.628Y-27.137
X217.629Y-28.28
X217.629Y-29.423
X217.629Y-30.566
X217.629Y-31.709
X217.629Y-32.852
X217.629Y-33.995
X217.661Y-37.487
X217.708Y-35.233
X217.724Y-38.599
X217.724Y-36.376
X218.771Y-19.056
X218.771Y-20.2
X218.771Y-21.342
X218.771Y-22.485
X218.771Y-23.628
X218.771Y-24.771
X218.771Y-25.994
X218.771Y-27.137
X218.772Y-28.28
X218.772Y-29.423
X218.772Y-30.566
X218.772Y-31.709
X218.772Y-32.852
X218.772Y-33.995
X218.804Y-39.678
X218.82Y-35.186
X218.82Y-36.408
X218.835Y-38.615
X218.867Y-37.471
X219.026Y-40.742
X219.105Y-187.236
X219.105Y-211.287
X220.01Y-19.215
X220.01Y-20.406
X220.01Y-21.596
X220.01Y-22.739
X220.01Y-23.883
X220.01Y-25.025
X220.01Y-26.168
X220.01Y-27.311
X220.01Y-28.534
X220.01Y-29.677
X220.01Y-38.884
X220.01Y-30.82
X220.01Y-31.963
X220.01Y-33.106
X220.01Y-34.249
X220.01Y-35.392
X220.01Y-36.535
X220.01Y-37.71
X220.01Y-39.948
X220.09Y-41.091
X221.121Y-39.948
X221.153Y-21.596
X221.153Y-22.739
X221.153Y-23.883
X221.153Y-25.025
X221.153Y-26.168
X221.153Y-27.311
X221.153Y-28.534
X221.153Y-29.677
X221.153Y-30.82
X221.153Y-31.963
X221.153Y-33.106
X221.153Y-34.249
X221.153Y-35.392
X221.153Y-36.535
X221.169Y-38.932
X221.201Y-37.726
X221.232Y-20.406
X221.264Y-40.98
X221.407Y-182.315
X222.328Y-39.519
X222.391Y-21.12
X222.391Y-22.311
X222.391Y-23.502
X222.391Y-24.644
X222.391Y-25.787
X222.391Y-26.93
X222.391Y-28.073
X222.391Y-29.216
X222.391Y-30.439
X222.391Y-31.582
X222.391Y-32.725
X222.391Y-33.868
X222.391Y-35.011
X222.391Y-36.154
X222.391Y-37.297
X222.391Y-38.44
X222.439Y-40.742
X223.391Y-194.475
X223.391Y-199.46
X223.503Y-39.631
X223.534Y-23.502
X223.534Y-24.644
X223.534Y-25.787
X223.534Y-26.93
X223.534Y-28.073
X223.534Y-29.216
X223.534Y-30.439
X223.534Y-31.582
X223.534Y-32.725
X223.534Y-33.868
X223.534Y-35.011
X223.534Y-36.154
X223.534Y-37.297
X223.534Y-38.44
X223.55Y-40.742
X223.613Y-21.12
X223.613Y-22.311
X224.646Y-40.821
X224.677Y-23.502
X224.677Y-24.644
X224.677Y-25.787
X224.677Y-26.93
X224.677Y-28.073
X224.677Y-29.216
X224.677Y-30.439
X224.677Y-31.582
X224.677Y-32.725
X224.677Y-33.868
X224.677Y-35.011
X224.677Y-36.154
X224.677Y-37.297
X224.677Y-38.44
X224.693Y-39.631
X224.756Y-22.311
X225.82Y-23.502
X225.82Y-24.644
X225.82Y-25.787
X225.82Y-26.93
X225.82Y-28.073
X225.82Y-29.216
X225.82Y-30.359
X225.82Y-31.582
X225.82Y-32.725
X225.82Y-33.868
X225.82Y-35.011
X225.82Y-36.154
X225.82Y-37.297
X225.82Y-38.44
X225.836Y-39.631
X225.836Y-40.821
X225.979Y-22.311
X226.836Y-23.502
X226.963Y-24.644
X226.963Y-25.787
X226.963Y-26.93
X226.963Y-28.073
X226.963Y-29.216
X226.963Y-30.359
X226.963Y-31.582
X226.963Y-32.725
X226.963Y-33.868
X226.963Y-35.011
X226.963Y-36.154
X226.963Y-37.297
X226.963Y-38.44
X226.979Y-39.631
X226.979Y-40.821
X228.106Y-24.644
X228.106Y-25.787
X228.106Y-26.93
X228.106Y-28.073
X228.106Y-29.216
X228.106Y-30.359
X228.106Y-31.582
X228.106Y-32.725
X228.106Y-33.868
X228.106Y-35.011
X228.106Y-36.154
X228.106Y-37.297
X228.106Y-38.44
X228.313Y-200.889
X229.122Y-24.644
X229.249Y-25.787
X229.249Y-26.93
X229.249Y-28.073
X229.249Y-29.216
X229.328Y-30.518
X229.328Y-31.74
X229.329Y-32.884
X229.329Y-34.027
X229.329Y-35.17
X229.329Y-36.313
X229.329Y-37.456
X230.471Y-25.946
X230.471Y-27.089
X230.471Y-28.232
X230.471Y-29.375
X230.471Y-30.518
X230.471Y-31.74
X230.472Y-32.884
X230.472Y-34.027
X230.472Y-35.17
X230.472Y-36.313
X231.614Y-27.089
X231.614Y-28.232
X231.614Y-29.375
X231.614Y-30.518
X231.614Y-31.74
X231.615Y-32.884
X231.615Y-34.027
X231.615Y-35.17
X232.757Y-28.232
X232.757Y-29.375
X232.757Y-30.518
X232.757Y-31.74
X232.758Y-32.884
X232.758Y-34.027
X233.9Y-29.375
X233.9Y-30.518
X233.9Y-31.74
X233.901Y-32.884
X235.091Y-29.375
X235.091Y-30.518
X235.091Y-31.74
X236.281Y-30.518
X240.774Y-98.781
X256.776Y-215.938
X262.745Y-53.759
X262.841Y-62.221
X264.508Y-138.976
X269.191Y-134.849
X272.207Y-51.822
X272.207Y-52.934
X272.207Y-54.124
X272.207Y-56.426
X272.207Y-55.236
X272.286Y-138.897
X272.445Y-146.755
X273.318Y-54.124
X273.318Y-51.822
X273.318Y-52.933
X273.318Y-55.235
X273.398Y-56.426
X273.715Y11.82
X274.35Y-54.124
X274.35Y-55.235
X274.43Y-51.822
X274.43Y-52.933
X274.588Y-56.426
X275.255Y-60.601
X275.461Y-54.124
X275.461Y-55.235
X275.541Y-51.822
X275.541Y-52.933
X275.779Y-56.426
X276.573Y-54.124
X276.573Y-55.235
X276.652Y-51.822
X276.652Y-52.933
X276.97Y-56.426
X277.684Y-54.124
X277.684Y-55.235
X277.763Y-51.822
X277.763Y-52.933
X278.16Y-56.426
X278.795Y-54.124
X278.795Y-55.235
X278.875Y-51.822
X278.875Y-52.933
X279.351Y-56.426
X279.986Y-51.822
X279.986Y-52.933
X279.986Y-54.124
X279.986Y-55.235
X280.462Y-37.694
X280.541Y-56.426
X280.621Y-26.661
X281.097Y-63.094
X281.097Y-51.822
X281.097Y-52.933
X281.097Y-54.124
X281.097Y-55.235
X281.732Y-56.426
X281.97Y-75.714
X281.97Y-146.834
X282.208Y-51.822
X282.208Y-52.933
X282.208Y-54.124
X282.208Y-55.235
X282.446Y-134.849
X282.923Y-56.426
X283.32Y-51.822
X283.32Y-52.933
X283.32Y-54.124
X283.32Y-55.235
X284.113Y-56.426
X284.431Y-51.822
X284.431Y-52.933
X284.431Y-54.124
X284.431Y-55.235
X285.304Y-56.426
X285.542Y-51.822
X285.542Y-52.933
X285.542Y-54.124
X285.542Y-55.235
X286.495Y-56.426
X286.733Y-51.822
X286.733Y-52.933
X286.733Y-54.124
X286.733Y-55.235
X287.05Y-224.384
X287.685Y-56.426
X287.844Y-51.822
X287.844Y-52.933
X287.844Y-54.124
X287.844Y-55.235
X288.876Y-56.426
X288.955Y-51.822
X288.955Y-52.933
X288.955Y-54.124
X288.955Y-55.235
X289.352Y-78.096
X290.066Y-51.822
X290.066Y-52.933
X290.066Y-54.124
X290.066Y-55.235
X290.066Y-56.426
X291.257Y24.457
T5
X157.32Y24.124
T6
X75.754Y-81.667
X75.754Y-84.207
X75.754Y-91.827
X78.294Y-81.667
X83.374Y-91.827
X85.914Y-81.667
X85.914Y-89.287
X85.914Y-91.827
T7
X164.547Y-68.459
X167.047Y-68.459
X84.723Y34.95
X84.723Y32.41
X84.723Y29.87
X162.908Y30.728
X165.448Y30.728
X167.988Y30.728
X87.938Y-95.637
X92.938Y-95.637
X271.413Y-41.707
X271.413Y-49.207
X169.416Y-11.54
X169.416Y-16.54
X167.289Y-20.993
X169.829Y-20.993
X172.369Y-20.993
X82.378Y-77.667
X84.878Y-77.667
X169.353Y-8.956
X169.353Y-16.456
X177.533Y-6.102
X180.033Y-6.102
X171.024Y-4.197
X173.524Y-4.197
X65.443Y-37.408
X70.443Y-37.408
X86.708Y-25.986
X86.708Y-30.986
X265.472Y-104.305
X272.972Y-104.305
X81.497Y-100.368
X88.997Y-100.368
X84.644Y-104.587
X84.644Y-112.087
X281.24Y-167.849
X281.24Y-175.349
X144.493Y31.362
X147.033Y31.362
X149.573Y31.362
X23.652Y-73.159
X23.652Y-75.698
X23.652Y-78.239
X88.295Y-24.482
X88.295Y-31.982
X65.316Y-25.787
X70.316Y-25.787
T8
X136.873Y28.981
X139.413Y28.981
X16.54Y-60.395
X21.62Y-60.395
X148.461Y27.235
X151.001Y27.235
X193.546Y-10.23
X193.546Y-12.77
X62.419Y-36.265
X62.419Y-46.425
X225.455Y-219.7
X227.995Y-219.7
X23.843Y-54.918
X26.383Y-54.918
X175.131Y32.474
X175.131Y29.934
X142.746Y27.235
X145.286Y27.235
X158.462Y32.474
X158.462Y29.934
X156.32Y-245.021
X161.4Y-245.021
X59.148Y-7.563
X69.308Y-7.563
X44.496Y34.744
X44.496Y29.664
X52.116Y34.744
X52.116Y29.664
X54.656Y34.744
X54.656Y29.664
T9
X132.428Y13.9
X134.968Y13.9
X137.508Y13.9
X140.048Y13.9
X142.588Y13.9
X145.128Y13.9
X147.668Y13.9
X150.208Y13.9
X152.748Y13.9
X155.288Y13.9
X157.828Y13.9
X160.368Y13.9
X162.908Y13.9
X165.448Y13.9
X167.988Y13.9
X170.528Y13.9
X173.068Y13.9
X175.608Y13.9
X178.148Y13.9
X180.688Y13.9
X183.228Y13.9
X185.768Y13.9
X188.308Y13.9
X190.848Y13.9
X193.388Y13.9
X195.928Y13.9
X198.468Y13.9
X201.008Y13.9
X203.548Y13.9
X206.088Y13.9
T10
X47.814Y-123.419
X47.814Y-151.359
X63.054Y-123.498
X63.054Y-151.438
X109.091Y-123.498
X109.091Y-151.438
X78.453Y-123.498
X78.453Y-151.438
X93.772Y-123.498
X93.772Y-151.438
T11
X117.584Y-118.021
X117.584Y-120.561
X117.584Y-123.101
X117.584Y-125.562
X120.124Y-118.021
X120.124Y-120.561
X120.124Y-123.101
X120.124Y-125.562
X122.585Y-118.021
X122.585Y-120.561
X122.585Y-123.101
X122.585Y-125.562
X125.125Y-118.021
X125.125Y-120.561
X125.125Y-123.101
X125.125Y-125.562
X162.987Y-107.782
X162.987Y-110.242
X162.987Y-112.782
X165.051Y-107.702
X165.13Y-112.782
X165.13Y-110.322
X166.559Y-104.686
X167.273Y-112.782
X167.352Y-107.702
X167.432Y-110.242
X168.94Y-104.686
X171.797Y-104.686
X174.814Y-104.686
X176.798Y-119.847
X177.83Y-104.686
X179.338Y-117.466
X179.338Y-119.767
X180.688Y-107.226
X180.846Y-110.084
X181.719Y-115.878
X181.719Y-119.767
X181.799Y-117.862
X181.878Y-113.1
X183.545Y-110.084
X184.339Y-113.1
X184.339Y-115.64
X184.339Y-119.767
X184.418Y-117.783
X210.977Y-2.19
X210.977Y-17.19
X252.895Y-2.816
X257.895Y-2.816
X51.029Y-99.051
X56.029Y-99.051
X72.968Y-108.02
X77.968Y-108.02
X69.245Y33.823
X69.245Y31.283
T12
X295.083Y-174.695
X295.083Y-177.235
X295.083Y-179.775
X295.083Y-90.24
X295.083Y-92.78
X295.083Y-95.32
X179.259Y31.68
X181.799Y31.68
X211.009Y-4.165
X211.009Y-26.771
X3.681Y-201.968
X3.681Y-216.954
X295.083Y-29.915
X295.083Y-32.455
X295.083Y-34.995
X14.556Y-212.684
X14.556Y-235.29
X35.764Y34.871
X35.764Y32.331
X35.764Y29.791
X220.534Y-205.175
X225.614Y-205.175
X25.827Y-2.419
X25.827Y-25.025
X295.083Y-66.11
X295.083Y-68.65
X295.083Y-71.19
X70.356Y-108.02
X77.976Y-108.02
X295.067Y-54.045
X295.067Y-56.585
X295.067Y-59.125
X216.039Y27.711
X218.579Y27.711
X221.119Y27.711
X223.659Y27.711
X85.199Y-222.447
X85.199Y-237.433
X295.083Y-138.5
X295.083Y-141.04
X295.083Y-143.58
X295.067Y-17.85
X295.067Y-20.39
X295.067Y-22.93
X130.046Y8.185
X132.586Y8.185
X295.067Y-126.435
X295.067Y-128.975
X295.067Y-131.515
X134.333Y28.981
X139.413Y28.981
X26.621Y-212.684
X26.621Y-235.29
X4.316Y-229.781
X4.316Y-239.941
X3.761Y-206.763
X3.761Y-216.923
X295.067Y-150.565
X295.067Y-153.105
X295.067Y-155.645
X295.083Y-114.37
X295.083Y-116.91
X295.083Y-119.45
X85.2Y-222.478
X85.2Y-232.638
X295.067Y-186.76
X295.067Y-189.3
X295.067Y-191.84
X4.237Y-229.749
X4.237Y-244.735
X295.083Y-198.825
X295.083Y-201.365
X295.083Y-203.905
X295.067Y-78.175
X295.067Y-80.715
X295.067Y-83.255
X85.279Y-199.888
X85.279Y-214.874
X250.49Y-5.277
X258.11Y-5.277
X85.279Y-204.778
X85.279Y-214.938
X295.083Y-5.785
X295.083Y-8.325
X295.083Y-10.865
X78.453Y-18.374
X78.453Y-40.98
X295.067Y-210.89
X295.067Y-213.43
X295.067Y-215.97
X95.915Y-204.349
X95.915Y-226.955
X115.997Y-235.147
X123.617Y-238.703
X295.067Y6.28
X295.067Y3.74
X295.067Y1.2
T13
X46.068Y-80.556
X46.068Y-90.716
T14
X51.624Y-30.391
X64.324Y-32.931
X113.457Y-235.432
X123.617Y-238.734
X26.621Y-207.89
X26.621Y-235.322
X40.829Y-0.07
X53.529Y-2.61
X95.915Y-199.555
X95.915Y-226.987
X51.624Y-30.391
X61.784Y-32.931
X211.009Y0.628
X211.009Y-26.803
X25.827Y2.375
X25.827Y-25.057
X14.556Y-207.89
X14.556Y-235.322
X40.829Y-0.07
X50.989Y-2.61
T15
X159.415Y-25.629
X224.543Y-231.924
X229.543Y-231.924
X190.649Y-246.164
X195.649Y-246.164
X183.592Y-30.836
X183.624Y-28.327
X183.624Y-53.727
X183.646Y-51.144
X193.864Y-41.013
X60.196Y-109.409
X60.196Y-114.409
X231.027Y-243.077
X231.027Y-248.077
X218.867Y-243.394
X218.867Y-248.394
T16
X198.23Y-195.451
X198.269Y-208.469
X198.269Y-203.032
X198.388Y-216.089
X198.388Y-229.106
X198.428Y-221.645
X188.169Y-208.618
X188.169Y-216.178
X193.209Y-208.618
X193.209Y-216.178
X213.369Y-208.618
X213.369Y-216.178
X188.17Y-195.442
X188.17Y-203.002
X193.21Y-195.442
X193.21Y-203.002
X213.37Y-195.442
X213.37Y-203.002
X188.17Y-221.635
X188.17Y-229.195
X193.21Y-221.635
X193.21Y-229.195
X213.37Y-221.635
X213.37Y-229.195
X117.902Y-245.418
X117.902Y-250.498
X137.904Y-245.418
X137.904Y-250.498
T17
X122.684Y-247.958
X145.188Y-247.958
T18
X11.333Y-79.81
X16.413Y-79.81
X7.888Y-193.348
X12.968Y-193.348
X11.412Y-70.761
X16.492Y-70.761
X12.095Y-244.545
X17.175Y-244.545
X7.888Y-198.508
X12.968Y-198.508
X85.399Y-249.466
X95.399Y-249.466
X105.399Y-249.466
X11.857Y-249.784
X16.937Y-249.784
T19
X105.409Y-249.466
T20
X95.249Y-249.466
X100.329Y-249.466
T21
X82.231Y-7.61
X87.311Y-7.61
X82.183Y3.661
X87.263Y3.661
X25.668Y-33.011
X30.748Y-33.011
X105.916Y-182.871
X108.456Y-228.591
X110.996Y-182.871
X113.536Y-228.591
X144.016Y-228.591
X146.556Y-182.871
X149.096Y-228.591
X151.636Y-182.871
X68.531Y18.187
X73.611Y18.187
X68.054Y8.741
X73.134Y8.741
X4.515Y-19.39
X9.595Y-19.39
X5.275Y-10.155
X10.355Y-10.155
X25.435Y-40.365
X30.515Y-40.365
X25.589Y-48.568
X30.669Y-48.568
X12.055Y-14.815
X17.135Y-14.815
X82.263Y14.615
X87.343Y14.615
X68.61Y-2.451
X73.69Y-2.451
T22
X6.221Y-24.836
X6.221Y-27.376
X6.221Y-29.916
X6.221Y-32.456
X8.761Y-24.836
X8.761Y-27.376
X8.761Y-29.916
X8.761Y-32.456
X11.301Y-24.836
X11.301Y-27.376
X11.301Y-29.916
X11.311Y-32.456
X13.841Y-24.836
X13.841Y-27.376
X13.841Y-29.916
X13.841Y-32.456
X24.318Y17.947
X24.318Y15.407
X24.318Y12.867
X24.318Y10.327
X26.858Y17.947
X26.858Y15.407
X26.858Y12.867
X26.858Y10.327
X29.398Y17.947
X29.398Y15.407
X29.398Y12.867
X29.408Y10.327
X31.938Y17.947
X31.938Y15.407
X31.938Y12.867
X31.938Y10.327
T23
X291.646Y-2.737
X291.646Y-8.325
X291.646Y-13.913
X291.646Y-171.647
X291.646Y-177.235
X291.646Y-182.823
X291.646Y-87.192
X291.646Y-92.78
X291.646Y-98.368
X291.646Y-26.867
X291.646Y-32.455
X291.646Y-38.043
X291.646Y-63.062
X291.646Y-68.65
X291.646Y-74.238
X291.646Y-135.452
X291.646Y-141.04
X291.646Y-146.628
X291.646Y-111.322
X291.646Y-116.91
X291.646Y-122.498
X291.646Y-195.777
X291.646Y-201.365
X291.646Y-206.953
T24
X48.766Y-196.523
X48.766Y-196.523
X48.766Y-227.003
X49.401Y-202.714
X49.401Y-220.812
X65.911Y-202.714
X65.911Y-220.812
X66.546Y-196.523
X66.546Y-227.003
T25
X47.496Y-193.983
X47.496Y-229.543
X67.816Y-193.983
X67.816Y-229.543
T26
X37.654Y-9.119
X39.003Y-142.548
X40.353Y-31.423
X44.321Y-119.212
X156.478Y2.788
X163.384Y-104.527
X165.368Y-40.71
X210.85Y-41.027
X231.408Y13.265
X249.061Y-233.655
X259.221Y-233.655
X239.79Y-86.017
X249.95Y-86.017
X110.917Y-247.958
X118.537Y-247.958
X137.587Y-247.958
X145.207Y-247.958
X239.6Y-49.536
X249.76Y-49.536
X239.711Y-196.19
X249.871Y-196.19
X248.744Y-12.865
X258.904Y-12.865
X248.712Y24.378
X258.872Y24.378
X239.727Y-122.498
X249.887Y-122.498
X239.822Y-159.058
X249.982Y-159.058
T27
X39.876Y-191.443
X39.876Y-196.602
X39.876Y-201.762
X39.876Y-221.764
X39.876Y-226.924
X39.876Y-232.083
X75.357Y-191.443
X75.436Y-232.083
X75.436Y-196.523
X75.436Y-201.682
X75.436Y-221.844
X75.436Y-227.003
T28
X5.109Y-37.85
X5.189Y-48.65
X10.309Y-37.85
X10.309Y-48.65
X15.409Y-37.85
X15.409Y-48.65
X42.098Y-37.612
X42.178Y-48.412
X47.298Y-37.612
X47.298Y-48.412
X52.398Y-37.612
X52.398Y-48.412
X42.733Y18.824
X42.813Y8.024
X47.933Y18.824
X47.933Y8.024
X53.033Y18.824
X53.033Y8.024
X24.974Y-157.785
X24.974Y-168.585
X30.074Y-157.785
X30.074Y-168.585
X35.194Y-157.785
X35.274Y-168.585
X4.792Y-114.05
X4.872Y-124.85
X9.992Y-114.05
X9.992Y-124.85
X15.092Y-114.05
X15.092Y-124.85
X5.267Y-157.15
X5.347Y-167.95
X10.467Y-157.15
X10.467Y-167.95
X15.567Y-157.15
X15.567Y-167.95
X24.0Y-113.891
X24.08Y-124.691
X29.2Y-113.891
X29.2Y-124.691
X34.3Y-113.891
X34.3Y-124.691
X6.3Y18.506
X6.379Y7.706
X11.499Y18.506
X11.499Y7.706
X16.599Y18.506
X16.599Y7.706
X23.841Y-93.492
X23.921Y-104.292
X29.041Y-93.492
X29.041Y-104.292
X34.142Y-93.492
X34.142Y-104.292
X24.476Y-140.958
X24.556Y-151.758
X29.676Y-140.958
X29.676Y-151.758
X34.776Y-140.958
X34.776Y-151.758
X5.585Y-140.72
X5.665Y-151.52
X10.785Y-140.72
X10.785Y-151.52
X15.885Y-140.72
X15.885Y-151.52
X4.871Y-93.809
X4.951Y-104.609
X10.071Y-93.809
X10.071Y-104.609
X15.171Y-93.809
X15.171Y-104.609
T29
X146.239Y-145.961
X190.53Y-101.194
T30
X52.259Y-18.58
X2.681Y-223.479
T31
X99.963Y-9.515
X99.963Y-39.837
X100.027Y-9.514
X100.027Y-39.773
X155.603Y-9.614
X155.684Y-9.515
X155.766Y-39.742
X155.843Y-39.678
X171.321Y-40.71
X206.246Y-40.71
T32
X134.179Y-150.861
X155.714Y-130.195
X174.764Y-111.145
X194.359Y-90.88
T0
M30
